<svg xmlns="http://www.w3.org/2000/svg" viewBox="0 0 511.999 511.999"><path fill="#b7e445" d="M406.007 170.565 256.889 7.89a1.206 1.206 0 0 0-1.779 0L105.992 170.565c-.709.774-.16 2.022.889 2.022h78.884c.666 0 1.206.54 1.206 1.206v80.999c0 .666.54 1.206 1.206 1.206H323.82c.666 0 1.206-.54 1.206-1.206v-80.999c0-.666.54-1.206 1.206-1.206h78.884c1.052 0 1.601-1.248.891-2.022z"/><path fill="#aad540" d="M406.007 170.565 256.889 7.89a1.206 1.206 0 0 0-1.779 0l-9.944 10.848 100.437 109.567c8.519 9.294 1.926 24.281-10.681 24.281h-35.404c-8.003 0-14.49 6.487-14.49 14.49v54.432c0 8.003-6.487 14.49-14.49 14.49h-83.566v18.794c0 .666.54 1.206 1.206 1.206h135.643c.666 0 1.206-.54 1.206-1.206v-80.999c0-.666.54-1.206 1.206-1.206h78.884c1.051 0 1.6-1.248.89-2.022z"/><g fill="#617881"><path d="M137.648 283.61H84.434c-.555 0-1.004.45-1.004 1.004v218.88c0 .555.45 1.004 1.004 1.004h136.047c.555 0 1.004-.45 1.004-1.004V450.28c0-.555-.45-1.004-1.004-1.004h-80.825c-.555 0-1.004-.45-1.004-1.004V284.614c0-.554-.449-1.004-1.004-1.004zM359.316 284.262l-54.037 144.1c-.326.869-1.555.869-1.881 0l-54.037-144.1a1.005 1.005 0 0 0-.94-.652h-53.077c-.701 0-1.187.7-.94 1.357l82.08 218.88c.147.392.522.652.94.652h53.83c.419 0 .793-.26.94-.652l82.08-218.88a1.004 1.004 0 0 0-.94-1.357h-53.077c-.419 0-.794.26-.941.652z"/><circle cx="400.958" cy="476.888" r="27.611"/></g><path d="M106.881 180.087h72.591v74.705c0 4.801 3.906 8.707 8.707 8.707h135.643c4.801 0 8.707-3.906 8.707-8.707v-74.705h72.591a8.709 8.709 0 0 0 6.418-14.59L262.417 2.822C260.772 1.028 258.434 0 256 0s-4.773 1.028-6.418 2.822l-60.31 65.792a7.5 7.5 0 0 0 11.058 10.137L256 18.02l134.812 147.067h-64.577c-4.801 0-8.707 3.905-8.707 8.706v74.706H194.472v-74.706c0-4.801-3.906-8.706-8.707-8.706h-64.577l55.75-60.817a7.5 7.5 0 0 0-11.058-10.137l-65.415 71.363c-2.333 2.543-2.943 6.229-1.554 9.389s4.518 5.202 7.97 5.202zM220.481 441.776h-25.776c-4.142 0-7.5 3.357-7.5 7.5s3.358 7.5 7.5 7.5h19.28v40.223H90.93V291.11h40.222v157.162c0 4.689 3.815 8.504 8.504 8.504h20.049c4.142 0 7.5-3.357 7.5-7.5s-3.358-7.5-7.5-7.5h-13.553V284.614c0-4.689-3.815-8.504-8.504-8.504H84.435c-4.689 0-8.504 3.814-8.504 8.504v218.88c0 4.689 3.815 8.505 8.504 8.505h136.047c4.689 0 8.504-3.815 8.504-8.505v-53.213c0-4.689-3.815-8.505-8.505-8.505zM385.422 361.903a7.5 7.5 0 0 0-9.656 4.389l-49.015 130.707h-44.827L204.716 291.11h39.202l52.457 139.886c1.249 3.327 4.356 5.518 7.965 5.518 3.58-.001 6.705-2.168 7.96-5.519l52.457-139.885h39.202l-16.178 43.141a7.5 7.5 0 1 0 14.045 5.267l19.468-51.914a8.503 8.503 0 0 0-7.961-11.494h-53.077a8.546 8.546 0 0 0-7.963 5.518l-47.956 127.881-47.956-127.883a8.544 8.544 0 0 0-7.962-5.516h-53.077a8.505 8.505 0 0 0-7.963 11.49l82.081 218.883a8.544 8.544 0 0 0 7.962 5.516h53.83a8.546 8.546 0 0 0 7.963-5.518l50.596-134.922a7.5 7.5 0 0 0-4.389-9.656zM400.958 441.776c-19.36 0-35.111 15.751-35.111 35.111s15.751 35.111 35.111 35.111 35.111-15.751 35.111-35.111-15.751-35.111-35.111-35.111zm0 55.223c-11.089 0-20.111-9.021-20.111-20.111s9.022-20.111 20.111-20.111 20.111 9.021 20.111 20.111-9.022 20.111-20.111 20.111z"/></svg>