<svg xmlns="http://www.w3.org/2000/svg" viewBox="0 0 512 512"><path fill="#e6989e" d="M209.361 7.5c-25.969 0-47.022 21.075-47.022 47.072 0 1.354.07 2.69.182 4.015a67.599 67.599 0 0 0-14.43-1.565c-37.255 0-67.456 30.234-67.456 67.529a67.43 67.43 0 0 0 4.295 23.732c-34.424 3.059-61.419 31.989-61.419 67.246 0 22.376 10.879 42.201 27.624 54.489-16.755 5.544-29.684 20.337-31.951 39.035-3.014 24.856 13.911 47.526 38.195 51.964-7.545 11.221-11.95 24.732-11.95 39.275 0 38.895 31.496 70.424 70.348 70.424a69.94 69.94 0 0 0 34.738-9.194c4.889 24.507 26.494 42.976 52.413 42.976 29.522 0 53.455-23.958 53.455-53.513V54.572C256.382 28.575 235.33 7.5 209.361 7.5z"/><path fill="#e27f86" d="M120.514 461.524a70.01 70.01 0 0 1-19.737 7.573 70.467 70.467 0 0 0 15 1.621 70.81 70.81 0 0 0 7.305-.381 53.136 53.136 0 0 1-2.568-8.813zM209.361 7.5c-5.247 0-10.288.873-15 2.461 18.611 6.269 32.021 23.867 32.021 44.612v396.415c0 24.34-16.239 44.871-38.459 51.362a53.379 53.379 0 0 0 15.004 2.15c29.522 0 53.455-23.958 53.455-53.512V54.572c0-25.997-21.052-47.072-47.021-47.072z"/><g fill="#e6989e"><path d="M485.568 340.372a46.924 46.924 0 0 0 7.248-31.318c-3.129-25.808-26.564-44.19-52.344-41.058a47.136 47.136 0 0 0-9.107 2.031M396.224 183.842c20.939-11.462 35.141-33.716 35.141-59.291 0-37.295-30.201-67.529-67.456-67.529-13.97 0-26.949 4.252-37.715 11.533M337.889 439.668c12.642 18.733 34.051 31.049 58.334 31.049 38.852 0 70.348-31.53 70.348-70.424 0-21.801-9.895-41.288-25.434-54.206"/><path d="M302.639 7.5c25.969 0 47.022 21.075 47.022 47.072 0 1.354-.07 2.69-.182 4.015a67.594 67.594 0 0 1 14.431-1.565c37.255 0 67.456 30.234 67.456 67.529a67.43 67.43 0 0 1-4.295 23.732c34.424 3.059 61.419 31.989 61.419 67.246 0 22.376-10.879 42.201-27.624 54.489 16.755 5.544 29.684 20.337 31.951 39.035 3.014 24.856-13.911 47.526-38.195 51.964 7.545 11.221 11.95 24.732 11.95 39.275 0 38.895-31.496 70.424-70.348 70.424a69.94 69.94 0 0 1-34.738-9.194c-4.889 24.507-26.494 42.976-52.413 42.976-29.522 0-53.455-23.958-53.455-53.513V54.572C255.617 28.575 276.67 7.5 302.639 7.5z"/></g><path fill="#e27f86" d="M326.061 478.51c-6.162 11.347-16.304 20.214-28.551 24.72a53.52 53.52 0 0 0 11.562 1.269c21.975 0 40.844-13.279 49.059-32.255a70.121 70.121 0 0 1-11.39-2.28c-8.03-2.315-16.692 1.202-20.68 8.546zM492.816 309.054c-2.267-18.699-15.197-33.491-31.951-39.035 16.744-12.288 27.624-32.113 27.624-54.489 0-35.257-26.994-64.187-61.419-67.246a67.426 67.426 0 0 0 4.295-23.732c0-37.295-30.201-67.529-67.456-67.529-4.955 0-9.78.55-14.431 1.565.112-1.325.182-2.661.182-4.015 0-25.997-21.052-47.072-47.022-47.072a46.826 46.826 0 0 0-17.96 3.564c20.135 5.325 34.982 23.678 34.982 45.509v.041a3.25 3.25 0 0 0 3.772 3.232 67.258 67.258 0 0 1 10.477-.823c37.255 0 67.456 30.234 67.456 67.529 0 2.269-.113 4.512-.332 6.723-.896 9.024 4.273 17.631 12.807 20.699 26.03 9.358 44.649 34.275 44.649 63.555 0 22.377-10.879 42.202-27.624 54.489 16.755 5.544 29.684 20.337 31.951 39.035 2.042 16.843-5.071 32.683-17.426 42.525-9.563 7.619-13.771 19.964-10.853 31.838a70.626 70.626 0 0 1 2.034 16.876c0 32.094-21.453 59.154-50.78 67.642a70.48 70.48 0 0 0 10.432.782c38.852 0 70.348-31.53 70.348-70.424 0-14.543-4.406-28.055-11.95-39.275 24.283-4.438 41.208-27.108 38.195-51.964z"/><path d="M392.288 338.234a7.5 7.5 0 0 0-3.408-14.607 54.665 54.665 0 0 0-30.627 19.58c-10.632-4.577-22.404-5.645-33.889-2.965a7.5 7.5 0 0 0 3.408 14.607c10.295-2.403 20.906-.657 29.879 4.916 8.972 5.571 15.231 14.3 17.628 24.58.597 2.563.94 5.181 1.021 7.781a7.5 7.5 0 0 0 7.728 7.265 7.499 7.499 0 0 0 7.264-7.728 54.715 54.715 0 0 0-1.406-10.722c-2.776-11.914-9.326-22.307-18.682-29.887a39.644 39.644 0 0 1 21.084-12.82zM164.313 348.147c.266-8.511 2.356-17.058 6.371-25.067 5.383-10.741 13.743-19.514 24.176-25.37a7.5 7.5 0 0 0-7.342-13.08c-13.055 7.328-23.513 18.299-30.244 31.728a75.218 75.218 0 0 0-7.663 26.672c-16.962 7.108-30.971 20.357-38.882 37.008a7.5 7.5 0 0 0 13.549 6.438c5.449-11.469 14.52-20.918 25.599-26.958 2.101 16.368 9.631 31.986 22.136 44.156a7.478 7.478 0 0 0 5.229 2.125 7.5 7.5 0 0 0 5.231-12.875c-12.272-11.943-18.55-28.038-18.171-44.299.007-.16.014-.318.011-.478zM301.75 133.866a7.5 7.5 0 1 0-4.064 14.438c16.486 4.641 29.684 15.792 37.109 30.266.068.14.136.28.214.417 3.828 7.608 6.07 16.116 6.363 25.072.394 12.007-2.768 23.706-9.142 33.831a7.5 7.5 0 0 0 12.693 7.992c7.977-12.67 11.933-27.302 11.44-42.314a75.185 75.185 0 0 0-5.992-27.096c11.515-14.339 17.505-32.668 16.513-51.075-.223-4.136-3.782-7.303-7.893-7.086a7.5 7.5 0 0 0-7.086 7.893c.683 12.679-2.781 25.312-9.635 35.906-9.654-13.384-23.723-23.516-40.52-28.244z"/><path d="M500.261 308.151c-2.027-16.719-11.751-31.438-25.797-40.034 13.641-13.929 21.523-32.855 21.523-52.587 0-18.867-7.024-36.898-19.778-50.773-10.592-11.521-24.352-19.353-39.433-22.58a74.978 74.978 0 0 0 2.088-17.624c0-41.371-33.625-75.029-74.956-75.029a74.452 74.452 0 0 0-3.862.109 76.512 76.512 0 0 0-3.032.213l-.055.004C354.559 21.959 331.114 0 302.639 0 282.894 0 265.568 10.561 256 26.334 246.432 10.561 229.106 0 209.361 0c-28.475 0-51.92 21.96-54.319 49.849-14.811-1.387-29.765 1.708-42.688 8.735a7.501 7.501 0 0 0 7.166 13.178c12.442-6.767 27.288-8.926 41.402-5.847.062.014.125.018.187.029a59.347 59.347 0 0 1 20.495 8.824 7.495 7.495 0 0 0 10.415-2.01 7.5 7.5 0 0 0-2.012-10.414 74.314 74.314 0 0 0-20.122-9.581C170.834 31.779 188.175 15 209.361 15c19.79 0 36.227 14.641 39.081 33.674-.209 1.939-.324 115.068-.324 115.068-22.503 9.76-48.625 4.926-66.184-12.634-8.496-8.496-14.186-19.195-16.453-30.942a7.495 7.495 0 0 0-8.786-5.942 7.5 7.5 0 0 0-5.942 8.786c2.838 14.699 9.953 28.084 20.574 38.705 14.452 14.452 33.544 22.014 52.929 22.014a74.732 74.732 0 0 0 23.863-3.92s.111 275.405.324 277.475C245.365 479.685 226.134 497 202.927 497c-20.125 0-37.788-13.201-43.778-32.026a77.8 77.8 0 0 0 21.178-21.111 7.5 7.5 0 0 0-12.433-8.391 63.02 63.02 0 0 1-18.708 18.116c.104.167.197.344.295.516a7.496 7.496 0 0 0-2.68.903 62.771 62.771 0 0 1-31.024 8.21c-34.655 0-62.849-28.228-62.849-62.924 0-11.13 2.9-21.917 8.41-31.453l.007.013a63.01 63.01 0 0 1 14.312-16.998 7.501 7.501 0 0 0-9.59-11.535 78.322 78.322 0 0 0-11.807 12.222c-18.051-5.526-29.96-23.383-27.632-42.585 1.836-15.143 12.38-28.025 26.862-32.817.013-.004.026-.012.039-.016a39.27 39.27 0 0 1 17.093-1.682 39.82 39.82 0 0 1 7.661 1.708c3.934 1.3 8.175-.838 9.473-4.772s-.838-8.175-4.771-9.473a54.849 54.849 0 0 0-10.553-2.354 54.433 54.433 0 0 0-19.708 1.194c-13.658-11.358-21.713-28.374-21.713-46.215 0-15.097 5.619-29.523 15.821-40.622 8.912-9.694 20.624-16.119 33.412-18.431 6.749 14.336 17.983 26.31 31.931 33.944a7.5 7.5 0 0 0 10.18-2.978 7.5 7.5 0 0 0-2.979-10.18c-11.946-6.539-21.408-17.053-26.641-29.604-.138-.33-4.602-15.86-4.602-23.107 0-12.032 3.54-23.637 10.237-33.561A7.5 7.5 0 0 0 85.937 82.6c-8.376 12.412-12.804 26.919-12.804 41.952 0 5.977.7 11.876 2.088 17.624-15.081 3.227-28.841 11.059-39.433 22.58-12.754 13.875-19.778 31.906-19.778 50.773 0 19.733 7.883 38.659 21.524 52.587-14.047 8.596-23.771 23.315-25.797 40.034-3.045 25.11 11.567 48.565 34.326 57.425-5.346 10.73-8.137 22.561-8.137 34.717 0 42.968 34.923 77.924 77.849 77.924a77.854 77.854 0 0 0 29.988-6.018C154.489 495.737 177.197 512 202.927 512c22.739 0 42.597-12.537 53.073-31.06 10.475 18.523 30.333 31.06 53.072 31.06 25.732 0 48.44-16.262 57.162-39.801a77.859 77.859 0 0 0 29.989 6.018c10.523 0 20.733-2.068 30.349-6.145a7.5 7.5 0 1 0-5.857-13.809c-7.752 3.288-15.991 4.955-24.491 4.955a62.77 62.77 0 0 1-31.025-8.21c-.052-.03-.108-.051-.161-.079a62.92 62.92 0 0 1-20.931-19.456 7.499 7.499 0 0 0-10.412-2.021 7.498 7.498 0 0 0-2.021 10.412 77.913 77.913 0 0 0 21.171 21.131C346.848 483.808 329.19 497 309.072 497c-23.205 0-42.437-17.315-45.513-39.718.213-2.07.209-406.67 0-408.609C266.412 29.641 282.849 15 302.639 15c21.186 0 38.528 16.78 39.476 37.764a74.983 74.983 0 0 0-20.123 9.579 7.5 7.5 0 0 0 4.209 13.713 7.46 7.46 0 0 0 4.195-1.289c6.359-4.302 13.572-7.334 21.071-8.927 4.97-1.246 11.454-1.319 12.441-1.319 33.06 0 59.956 26.929 59.956 60.029a59.873 59.873 0 0 1-3.817 21.098c-.017.044-.026.091-.042.135a60.143 60.143 0 0 1-27.383 31.479 7.501 7.501 0 0 0 7.203 13.158 75.167 75.167 0 0 0 31.921-33.946c12.792 2.311 24.505 8.736 33.419 18.432 10.202 11.099 15.821 25.525 15.821 40.622 0 17.844-8.059 34.864-21.721 46.222a54.39 54.39 0 0 0-19.701-1.201 54.924 54.924 0 0 0-10.553 2.354c-3.934 1.298-6.069 5.539-4.771 9.473s5.537 6.069 9.473 4.772a39.879 39.879 0 0 1 7.661-1.708 39.3 39.3 0 0 1 17.095 1.682c.013.004.025.011.038.016 14.481 4.792 25.025 17.674 26.862 32.818 2.328 19.201-9.58 37.056-27.629 42.583a78.18 78.18 0 0 0-11.81-12.22 7.499 7.499 0 0 0-10.561.972 7.5 7.5 0 0 0 .972 10.562 63.022 63.022 0 0 1 12.454 13.966c.235.359.47.717.697 1.08.262.419.516.844.768 1.27 5.767 9.699 8.809 20.729 8.809 32.124a62.915 62.915 0 0 1-15.536 41.422 7.5 7.5 0 1 0 11.293 9.873 77.906 77.906 0 0 0 19.243-51.294c0-12.157-2.79-23.987-8.136-34.717 22.76-8.861 37.373-32.316 34.328-57.426z"/></svg>